<?xml version="1.0" encoding="utf-8"?>
<!-- Generator: Adobe Illustrator 22.1.0, SVG Export Plug-In . SVG Version: 6.00 Build 0)  -->
<svg version="1.1" id="Layer_1" xmlns="http://www.w3.org/2000/svg" xmlns:xlink="http://www.w3.org/1999/xlink" x="0px" y="0px"
	 viewBox="0 0 347.5 66.7" style="enable-background:new 0 0 347.5 66.7;" xml:space="preserve">
<style type="text/css">
	.st0{fill:#2D61D5;}
</style>
<g id="XMLID_661_">
	<g id="XMLID_1561_">
		<path id="XMLID_1567_" class="st0" d="M21.4,19.4c0,0.3-0.3,0.6-0.6,0.6H3c-0.3,0-0.6-0.3-0.6-0.6V1.6C2.4,1.3,2.6,1,3,1h17.8
			c0.3,0,0.6,0.3,0.6,0.6V19.4z"/>
		<path id="XMLID_1566_" class="st0" d="M43.6,19.4c0,0.3-0.3,0.6-0.6,0.6H25.2c-0.3,0-0.6-0.3-0.6-0.6V1.6c0-0.3,0.3-0.6,0.6-0.6
			H43c0.3,0,0.6,0.3,0.6,0.6V19.4z"/>
		<path id="XMLID_1565_" class="st0" d="M65.8,19.4c0,0.3-0.3,0.6-0.6,0.6H47.4c-0.3,0-0.6-0.3-0.6-0.6V1.6c0-0.3,0.3-0.6,0.6-0.6
			h17.8c0.3,0,0.6,0.3,0.6,0.6V19.4z"/>
		<path id="XMLID_1564_" class="st0" d="M21.4,41.6c0,0.3-0.3,0.6-0.6,0.6H3c-0.3,0-0.6-0.3-0.6-0.6V23.9c0-0.3,0.3-0.6,0.6-0.6
			h17.8c0.3,0,0.6,0.3,0.6,0.6V41.6z"/>
		<path id="XMLID_1563_" class="st0" d="M43.6,41.6c0,0.3-0.3,0.6-0.6,0.6H25.2c-0.3,0-0.6-0.3-0.6-0.6V23.9c0-0.3,0.3-0.6,0.6-0.6
			H43c0.3,0,0.6,0.3,0.6,0.6V41.6z"/>
		<path id="XMLID_1562_" class="st0" d="M21.4,63.8c0,0.3-0.3,0.6-0.6,0.6H3c-0.3,0-0.6-0.3-0.6-0.6V46.1c0-0.3,0.3-0.6,0.6-0.6
			h17.8c0.3,0,0.6,0.3,0.6,0.6V63.8z"/>
	</g>
	<g id="XMLID_668_">
		<g id="XMLID_1554_">
			<path id="XMLID_1560_" class="st0" d="M246.6,42.3h-18.9v-9.5h18.9c1.8,0,3.3-1.4,3.3-3.2s-1.5-3.2-3.3-3.2h-22
				c-1.8,0-3.3,1.4-3.3,3.2v31.7c0,1.7,1.4,3.1,3.3,3.1c1.8,0,3.1-1.4,3.1-3.1V48.5h18.9c1.8,0,3.3-1.4,3.3-3.1
				C249.9,43.7,248.5,42.3,246.6,42.3z"/>
			<path id="XMLID_1557_" class="st0" d="M281.3,59.9L274,48.3c4.3-1.8,7.1-5.8,7.1-10.1c0-6.4-5.4-11.8-11.7-11.8h-13.3
				c-2,0-3,1.5-3,3.1v31.8c0,1.7,1.3,3.1,3.2,3.1c1.8,0,3.2-1.4,3.2-3.1v-12h7.8l8.3,13.5c0.5,1,1.6,1.7,2.9,1.7
				c0.6,0,1.1-0.1,1.5-0.4c0.8-0.4,1.4-1,1.6-1.9C281.8,61.5,281.7,60.6,281.3,59.9z M259.4,32.7h9.9c2.7,0,5.2,2.6,5.2,5.5
				c0,2.6-2.6,4.9-5.6,4.9h-9.5V32.7z"/>
			<path id="XMLID_1556_" class="st0" d="M340.5,48.6c1.8,0,3.3-1.5,3.3-3.2c0-1.8-1.5-3.2-3.3-3.2h-17.6v-9.5h18.7
				c1.8,0,3.3-1.4,3.3-3.2c0-1.7-1.5-3.1-3.6-3.1h-21.8c-1.6,0-3,1.4-3,3.2v31.8c0,1.7,1.4,3.1,3,3.1h22c2.1,0,3.6-1.5,3.6-3.2
				c0-1.7-1.5-3.2-3.3-3.2h-18.9v-9.5H340.5z"/>
			<path id="XMLID_1555_" class="st0" d="M308.8,48.6c1.8,0,3.3-1.5,3.3-3.2c0-1.8-1.5-3.2-3.3-3.2h-17.6v-9.5h18.7
				c1.8,0,3.3-1.4,3.3-3.2c0-1.7-1.5-3.1-3.6-3.1h-21.8c-1.6,0-3,1.4-3,3.2v31.8c0,1.7,1.4,3.1,3,3.1h22c2.1,0,3.6-1.5,3.6-3.2
				c0-1.7-1.5-3.2-3.3-3.2h-18.9v-9.5H308.8z"/>
		</g>
		<g id="XMLID_916_">
			<g id="XMLID_1550_">
				<g id="XMLID_1551_">
					<path id="XMLID_1552_" class="st0" d="M92.8,16.9h-1.2V2.8l-5.9,9.7h-0.2l-5.9-9.7v14.1h-1.2V1H80l5.7,9.4L91.3,1h1.5V16.9z"/>
				</g>
			</g>
			<g id="XMLID_1546_">
				<g id="XMLID_1547_">
					<path id="XMLID_1548_" class="st0" d="M99.9,1v15.8h-1.2V1H99.9z"/>
				</g>
			</g>
			<g id="XMLID_1155_">
				<g id="XMLID_1542_">
					<path id="XMLID_1543_" class="st0" d="M118.4,8.9c0,4.4-3.1,7.9-7.5,7.9H105V1h5.9C115.3,1,118.4,4.6,118.4,8.9z M117.2,8.9
						c0-3.8-2.6-6.8-6.3-6.8h-4.8v13.6h4.8C114.7,15.7,117.2,12.7,117.2,8.9z"/>
				</g>
			</g>
			<g id="XMLID_1098_">
				<g id="XMLID_1100_">
					<path id="XMLID_1101_" class="st0" d="M130.9,12.8h-8.2l-1.6,4h-1.3L126.1,1h1.3l6.3,15.8h-1.3L130.9,12.8z M130.4,11.7
						l-3.6-9.2l-3.6,9.2H130.4z"/>
				</g>
			</g>
			<g id="XMLID_1089_">
				<g id="XMLID_1094_">
					<path id="XMLID_1095_" class="st0" d="M135,13.2l1.1-0.6c0.6,1.8,2.3,3.1,5.1,3.1c2.9,0,4.3-1.3,4.3-3.1c0-1.8-1.8-2.5-4.4-3.3
						c-2.8-0.8-5.4-1.6-5.4-4.2c0-2.5,2.3-4.1,5.2-4.1c2.8,0,4.7,1.4,5.5,3.2l-1.1,0.5c-0.6-1.4-1.9-2.7-4.4-2.7
						c-2.4,0-3.8,1.3-3.8,3c0,1.8,1.7,2.4,4.2,3.1c3,0.9,5.7,1.8,5.7,4.4c0,2.5-2.2,4.2-5.6,4.2C138,16.9,135.8,15.4,135,13.2z"/>
				</g>
			</g>
		</g>
		<g id="XMLID_841_">
			<g id="XMLID_911_">
				<path id="XMLID_914_" class="st0" d="M113.4,64.1c0,0.2-0.2,0.4-0.4,0.4h-2.4c-0.2,0-0.4-0.2-0.4-0.4V31.6
					c0-0.2-0.1-0.2-0.2-0.1L96.4,53.7C96.3,53.9,96.1,54,96,54c-0.1,0-0.3-0.1-0.4-0.3L81.9,31.6c-0.1-0.2-0.2-0.1-0.2,0.1v32.5
					c0,0.2-0.2,0.4-0.4,0.4h-2.4c-0.2,0-0.4-0.2-0.4-0.4V26.8c0-0.2,0.2-0.4,0.4-0.4H82c0.2,0,0.5,0.1,0.6,0.3l13.2,21.9
					c0.1,0.2,0.3,0.2,0.4,0l13.2-21.9c0.1-0.2,0.4-0.3,0.6-0.3h3.1c0.2,0,0.4,0.2,0.4,0.4V64.1z"/>
			</g>
			<g id="XMLID_907_">
				<path id="XMLID_908_" class="st0" d="M146.4,61.3c0.2,0,0.4,0.2,0.4,0.4v2.4c0,0.2-0.2,0.4-0.4,0.4h-27.8
					c-0.2,0-0.4-0.2-0.4-0.4V26.8c0-0.2,0.2-0.4,0.3-0.4H146c0.3,0,0.5,0.2,0.5,0.4v2.4c0,0.2-0.2,0.4-0.4,0.4h-24.3
					c-0.2,0-0.4,0.2-0.4,0.4v12c0,0.2,0.2,0.4,0.4,0.4h22.8c0.2,0,0.4,0.2,0.4,0.4v2.4c0,0.2-0.2,0.4-0.4,0.4h-22.8
					c-0.2,0-0.4,0.2-0.4,0.4v15.1c0,0.2,0.2,0.4,0.4,0.4H146.4z"/>
			</g>
			<path id="XMLID_905_" class="st0" d="M209.9,26.4h-2.4c-0.2,0-0.4,0.2-0.4,0.4v15.1c0,0.2-0.2,0.4-0.4,0.4h-21.4
				c-0.2,0-0.4-0.2-0.4-0.4V26.8c0-0.2-0.2-0.4-0.4-0.4h-2.4c-0.2,0-0.4,0.2-0.4,0.4v37.3c0,0.2,0.2,0.4,0.4,0.4l0,0h2.4
				c0.2,0,0.4-0.2,0.4-0.4V45.8c0-0.2,0.2-0.4,0.4-0.4h21.4c0.2,0,0.4,0.2,0.4,0.4v18.3c0,0.2,0.2,0.4,0.4,0.4h1.4h1l0,0l0,0
				c0,0,0,0,0.1,0c0.2,0,0.3-0.2,0.3-0.4V26.8C210.3,26.6,210.1,26.4,209.9,26.4z"/>
			<g id="XMLID_842_">
				<g id="XMLID_878_">
					<path id="XMLID_899_" class="st0" d="M148.3,56.4l2.2-1.1c0.2-0.1,0.4,0,0.5,0.2c1.6,4.4,5.9,7.4,12.9,7.4
						c7.4,0,11.4-3.2,11.4-7.6c0-4.6-4.9-6.4-11.6-8.3c-7.4-2.1-14-4-14-10.8c0-6.3,5.8-10.4,13.3-10.4c7,0,11.8,3.5,14,7.8
						c0.1,0.2,0,0.4-0.2,0.5l-2.2,1c-0.2,0.1-0.4,0-0.5-0.2c-1.7-3.3-4.9-6.3-11-6.3c-6.1,0-10.3,3-10.3,7.3c0,4.6,4.7,6.3,11,8.1
						c7.8,2.3,14.6,4.3,14.6,11c0,6.4-5.7,10.6-14.5,10.6c-8.1,0-13.9-3.5-16-8.8C148.1,56.7,148.1,56.5,148.3,56.4z"/>
				</g>
			</g>
		</g>
	</g>
</g>
</svg>
